:SAMPLES-PER-SECOND 30
:FULLY-SPECIFIED
:DEGREES
214
root  -22.6045 5.63712 -17.2149 173.162 -1.05618 -165.432
RightUpLeg  -83.2847 -8.6475 14.7381
RightLeg  159.812 11.2394 -4.66278
RightFoot  -56.5431 5.61932 11.0389
RightToes  -5.9464 -0.0173636 -0.0550622
Spine  28.0339 2.02342 7.46888
Spine1  44.7208 1.88183 11.2233
HEad  -80.5661 -2.07413 9.30221
LeftShoulder1  -1.94126e-019 -3.10601e-018 -2.51263e-017
LeftArm  34.7554 -69.752 -129.932
LeftForeArm  27.0649 -5.9927 -1.03896
LeftHand  -0.505237 -0.289172 10.4216
RightShoulder  -4.96962e-017 0 -2.36833e-017
RightArm  -22.409 77.0648 88.8301
RightForeArm  71.6123 4.15758 0.666804
RightHand  -0.0186209 -5.38149 -12.2666
LeftUpLeg  -89.4361 12.5807 33.9076
LeftLeg  165.077 7.28838 -2.44262
LeftFoot  -52.2264 -2.33423 -4.59837
LeftToes  -18.3876 2.03064e-006 1.83538e-008
215
root  -22.6115 5.63761 -17.2206 173.128 -1.15215 -165.459
RightUpLeg  -83.1759 -8.7215 14.6259
RightLeg  159.82 11.2402 -4.66116
RightFoot  -56.626 5.64561 11.0696
RightToes  -5.97223 -0.0175996 -0.0553683
Spine  28.0626 1.99026 7.46009
Spine1  44.7483 1.82192 11.2106
HEad  -82.4454 -1.4594 9.23201
LeftShoulder1  -1.94126e-019 -3.10601e-018 -2.51263e-017
LeftArm  34.9867 -69.6876 -130.16
LeftForeArm  27.0896 -6.04723 -1.04885
LeftHand  -0.499844 -0.289396 10.3108
RightShoulder  -4.96962e-017 0 -2.36833e-017
RightArm  -21.9743 77.0776 89.1847
RightForeArm  71.6787 4.15559 0.666071
RightHand  -0.0278382 -5.29156 -12.1568
LeftUpLeg  -89.4393 12.4635 33.7676
LeftLeg  165.082 7.22403 -2.42054
LeftFoot  -52.3061 -2.35256 -4.62731
LeftToes  -18.1983 2.03064e-006 1.83538e-008
216
root  -22.6205 5.63795 -17.2312 173.107 -1.24019 -165.494
RightUpLeg  -83.0384 -8.78586 14.5027
RightLeg  159.847 11.2181 -4.64544
RightFoot  -56.7492 5.66925 11.0864
RightToes  -6.00033 -0.0178523 -0.0558902
Spine  28.0859 1.95731 7.45322
Spine1  44.7787 1.7932 11.1748
HEad  -84.6551 -0.74754 9.0216
LeftShoulder1  -1.94126e-019 -3.10601e-018 -2.51263e-017
LeftArm  35.1526 -69.5977 -130.307
LeftForeArm  27.0593 -6.10726 -1.05952
LeftHand  -0.498846 -0.312141 10.2513
RightShoulder  -4.96962e-017 0 -2.36833e-017
RightArm  -21.5685 77.0778 89.5238
RightForeArm  71.7572 4.31175 0.692773
RightHand  -0.0518774 -5.05372 -12.1208
LeftUpLeg  -89.4253 12.3489 33.63
LeftLeg  165.101 7.16644 -2.39871
LeftFoot  -52.3991 -2.36964 -4.65217
LeftToes  -18.0234 2.03064e-006 1.83538e-008
217
root  -22.631 5.63844 -17.2447 173.099 -1.33301 -165.54
RightUpLeg  -82.9012 -8.86094 14.3596
RightLeg  159.875 11.2079 -4.63456
RightFoot  -56.8503 5.70157 11.1239
RightToes  -6.08831 -0.0181197 -0.0566949
Spine  28.1031 1.92509 7.44307
Spine1  44.8027 1.77451 11.1263
HEad  -86.7928 -0.119121 8.77535
LeftShoulder1  -1.94126e-019 -3.10601e-018 -2.51263e-017
LeftArm  35.231 -69.5256 -130.375
LeftForeArm  27.1394 -6.16468 -1.06959
LeftHand  -0.50348 -0.408893 10.1193
RightShoulder  -4.96962e-017 0 -2.36833e-017
RightArm  -21.1066 77.0796 89.9499
RightForeArm  71.6702 4.62588 0.747696
RightHand  -0.0764179 -4.80836 -12.0619
LeftUpLeg  -89.3721 12.2349 33.4596
LeftLeg  165.119 7.09836 -2.37355
LeftFoot  -52.5394 -2.38614 -4.67072
LeftToes  -17.8539 2.03064e-006 1.83538e-008
218
root  -22.691 5.62868 -17.266 172.968 -1.75371 -165.984
RightUpLeg  -82.5165 -9.29552 13.2591
RightLeg  160.074 10.8422 -4.43299
RightFoot  -57.0269 5.67152 11.0298
RightToes  -6.76842 -0.0184 -0.0579803
Spine  28.1883 1.7266 7.29906
Spine1  44.9371 1.63434 10.7358
HEad  -88.5653 0.385261 8.53149
LeftShoulder1  -1.94126e-019 -3.10601e-018 -2.51263e-017
LeftArm  35.4423 -69.5919 -130.348
LeftForeArm  26.8744 -6.20334 -1.07646
LeftHand  -0.504111 -0.400855 10.1457
RightShoulder  -4.96962e-017 0 -2.36833e-017
RightArm  -19.5314 77.0526 90.4933
RightForeArm  70.3901 5.28734 0.866788
RightHand  -0.104285 -4.52667 -11.9971
LeftUpLeg  -89.4407 11.549 32.0053
LeftLeg  165.21 6.28133 -2.09036
LeftFoot  -52.9333 -2.56665 -4.99127
LeftToes  -16.4342 2.03064e-006 1.83538e-008
219
root  -22.695 5.6327 -17.2812 173.013 -1.77405 -166.031
RightUpLeg  -82.4328 -9.37395 13.2093
RightLeg  160.095 10.7759 -4.40009
RightFoot  -57.2 5.69586 11.0369
RightToes  -6.59218 -0.0186914 -0.0595183
Spine  28.1775 1.73209 7.26137
Spine1  44.9224 1.69413 10.6582
HEad  -90.0459 0.684718 8.39899
LeftShoulder1  -1.94126e-019 -3.10601e-018 -2.51263e-017
LeftArm  35.2316 -69.576 -130.183
LeftForeArm  26.8165 -6.17693 -1.07179
LeftHand  -0.508367 -0.448541 10.0803
RightShoulder  -4.96962e-017 0 -2.36833e-017
RightArm  -19.1013 77.0429 91.1061
RightForeArm  70.2315 5.8127 0.958676
RightHand  -0.152766 -4.04648 -12.0469
LeftUpLeg  -89.3301 11.5566 31.9012
LeftLeg  165.213 6.25305 -2.08065
LeftFoot  -53.0905 -2.56463 -4.96959
LeftToes  -16.2995 2.03064e-006 1.83538e-008
220
root  -22.7019 5.63924 -17.2918 173.066 -1.76759 -166.091
RightUpLeg  -82.3791 -9.40763 13.0772
RightLeg  160.097 10.6731 -4.35558
RightFoot  -57.3055 5.70116 11.0237
RightToes  -6.6113 -0.018992 -0.0611576
Spine  28.1663 1.74936 7.21499
Spine1  44.9133 1.7899 10.56
HEad  -91.1182 0.9285 8.28673
LeftShoulder1  -1.94126e-019 -3.10601e-018 -2.51263e-017
LeftArm  34.9536 -69.5631 -129.944
LeftForeArm  26.7854 -6.13986 -1.06532
LeftHand  -0.505192 -0.338707 10.2228
RightShoulder  -4.96962e-017 0 -2.36833e-017
RightArm  -18.5558 76.9936 91.6857
RightForeArm  70.09 6.51594 1.08219
RightHand  -0.197682 -3.58001 -11.9253
LeftUpLeg  -89.2203 11.5884 31.7496
LeftLeg  165.206 6.19216 -2.06129
LeftFoot  -53.235 -2.56634 -4.95688
LeftToes  -16.299 2.03064e-006 1.83538e-008
221
root  -22.7198 5.64378 -17.2974 173.182 -1.77405 -166.327
RightUpLeg  -82.4078 -9.41605 12.6714
RightLeg  160.15 10.4711 -4.25807
RightFoot  -57.3892 5.68126 10.9692
RightToes  -6.6737 -0.0192999 -0.062747
Spine  28.1087 1.77339 7.09046
Spine1  44.8198 1.97475 10.317
HEad  -91.8056 1.0067 8.25941
LeftShoulder1  -1.94126e-019 -3.10601e-018 -2.51263e-017
LeftArm  34.7065 -69.4981 -129.616
LeftForeArm  26.4786 -6.074 -1.0535
LeftHand  -0.50523 -0.386678 10.2538
RightShoulder  -4.96962e-017 0 -2.36833e-017
RightArm  -17.3035 76.5516 91.6933
RightForeArm  68.5316 7.97223 1.34038
RightHand  -0.23429 -3.12147 -11.463
LeftUpLeg  -89.1367 11.6164 31.2791
LeftLeg  165.176 6.04617 -2.01642
LeftFoot  -53.3972 -2.56249 -4.93123
LeftToes  -16.2488 2.03064e-006 1.83538e-008
222
root  -22.7292 5.6588 -17.3006 173.214 -1.79128 -166.356
RightUpLeg  -82.3618 -9.40694 12.5817
RightLeg  160.103 10.4372 -4.25366
RightFoot  -57.346 5.68427 10.984
RightToes  -6.97307 -0.0196131 -0.0641352
Spine  28.134 1.77906 7.07679
Spine1  44.8733 2.04343 10.2652
HEad  -92.5667 1.00033 8.20597
LeftShoulder1  -1.94126e-019 -3.10601e-018 -2.51263e-017
LeftArm  34.48 -69.5189 -129.429
LeftForeArm  26.3017 -6.0905 -1.05658
LeftHand  -0.502555 -0.337742 10.2829
RightShoulder  -4.96962e-017 0 -2.36833e-017
RightArm  -16.7336 76.8259 92.492
RightForeArm  68.0727 8.64693 1.43346
RightHand  -0.301327 -2.47565 -11.6945
LeftUpLeg  -89.0697 11.6112 31.0467
LeftLeg  165.154 5.90794 -1.9729
LeftFoot  -53.5553 -2.5797 -4.94785
LeftToes  -15.7954 2.03064e-006 1.83538e-008
223
root  -22.7414 5.67655 -17.3049 173.266 -1.89888 -166.531
RightUpLeg  -82.2884 -9.538 12.278
RightLeg  160.107 10.29 -4.18989
RightFoot  -57.4664 5.6914 10.9711
RightToes  -7.01809 -0.01993 -0.0651708
Spine  28.1299 1.76031 6.98026
Spine1  44.8682 2.14277 10.0745
HEad  -93.1288 1.04111 8.27083
LeftShoulder1  -1.94126e-019 -3.10601e-018 -2.51263e-017
LeftArm  34.4316 -69.5136 -129.357
LeftForeArm  26.1892 -5.99818 -1.04047
LeftHand  -0.498606 -0.284861 10.2933
RightShoulder  -4.96962e-017 0 -2.36833e-017
RightArm  -14.6658 76.6762 92.7349
RightForeArm  65.133 10.1933 1.53733
RightHand  -0.306308 -2.39544 -11.5849
LeftUpLeg  -89.0717 11.5343 30.5403
LeftLeg  165.093 5.64654 -1.89257
LeftFoot  -53.6597 -2.60399 -4.98425
LeftToes  -15.5395 2.03064e-006 1.83538e-008
